<svg xmlns="http://www.w3.org/2000/svg" xmlns:xlink="http://www.w3.org/1999/xlink" width="1024" zoomAndPan="magnify" viewBox="0 0 768 576" height="768" preserveAspectRatio="xMidYMid meet" version="1.0"><defs><clipPath id="142ccb6ec2"><path d="M 411 293 L 591.691406 293 L 591.691406 529.367188 L 411 529.367188 Z M 411 293 " clip-rule="nonzero"/></clipPath><clipPath id="d5c76caa25"><path d="M 88.441406 41.867188 L 538 41.867188 L 538 492 L 88.441406 492 Z M 88.441406 41.867188 " clip-rule="nonzero"/></clipPath><clipPath id="6de28c5e6e"><path d="M 451 294.117188 L 577 294.117188 L 577 390 L 451 390 Z M 451 294.117188 " clip-rule="nonzero"/></clipPath><clipPath id="a81e5e7c8e"><path d="M 654 442 L 679.464844 442 L 679.464844 468 L 654 468 Z M 654 442 " clip-rule="nonzero"/></clipPath><clipPath id="be0fdd8cc4"><path d="M 414.714844 405 L 448 405 L 448 505 L 414.714844 505 Z M 414.714844 405 " clip-rule="nonzero"/></clipPath></defs><g clip-path="url(#142ccb6ec2)"><path fill="#ffffff" d="M 568.746094 387.710938 L 568.746094 338.882812 C 568.746094 314.066406 548.570312 293.890625 523.722656 293.890625 L 479.308594 293.890625 C 454.492188 293.890625 434.316406 314.066406 434.316406 338.882812 L 434.316406 387.710938 C 421.53125 388.355469 411.355469 398.765625 411.355469 411.722656 L 411.355469 505.433594 C 411.355469 518.800781 422.175781 529.574219 435.480469 529.574219 L 567.550781 529.574219 C 580.886719 529.574219 591.691406 518.785156 591.691406 505.433594 L 591.691406 411.738281 C 591.691406 398.796875 581.5 388.355469 568.746094 387.710938 Z M 479.308594 319.679688 L 523.722656 319.679688 C 534.304688 319.679688 542.921875 328.3125 542.921875 338.882812 L 542.921875 387.632812 L 460.105469 387.632812 L 460.105469 338.882812 C 460.105469 328.3125 468.726562 319.679688 479.308594 319.679688 Z M 522.730469 500.132812 L 480.285156 500.132812 L 486.007812 461.984375 C 478.757812 457.046875 474.007812 448.710938 474.007812 439.226562 C 474.007812 424.050781 486.324219 411.707031 501.5 411.707031 C 516.707031 411.707031 529.019531 424.050781 529.019531 439.226562 C 529.019531 448.726562 524.253906 457.046875 517.003906 461.984375 Z M 522.730469 500.132812 " fill-opacity="1" fill-rule="nonzero"/></g><g clip-path="url(#d5c76caa25)"><path fill="#162b4c" d="M 397.78125 408.910156 C 397.78125 393.433594 406.652344 379.359375 421.214844 376.261719 L 421.214844 342.355469 C 397.167969 334.652344 367.917969 337.433594 358.464844 330.46875 C 352.523438 326.082031 350.019531 315.511719 349.09375 305.039062 C 364.144531 293.152344 376.535156 274.625 384.445312 253.539062 C 392.78125 250.3125 398.363281 241.710938 400.078125 230.910156 C 401.652344 220.953125 399.527344 211.832031 393.804688 206 C 393.835938 204.898438 393.945312 203.78125 393.945312 202.679688 C 393.945312 146.933594 357.789062 119.414062 313.191406 119.414062 C 268.589844 119.414062 232.433594 146.933594 232.433594 202.679688 C 232.433594 203.78125 232.527344 204.898438 232.558594 206 C 226.851562 211.832031 224.726562 220.953125 226.300781 230.910156 C 228 241.726562 233.582031 250.3125 241.933594 253.539062 C 249.828125 274.640625 262.234375 293.167969 277.285156 305.039062 C 276.359375 315.511719 273.84375 326.082031 267.914062 330.46875 C 254.402344 340.421875 200.585938 330.34375 179.074219 359.59375 C 172.785156 368.164062 169.132812 381.890625 167.011719 395.007812 C 136.816406 360.695312 118.355469 315.828125 118.355469 266.621094 C 118.355469 159.214844 205.746094 71.792969 313.191406 71.792969 C 420.632812 71.792969 508.027344 159.199219 508.027344 266.605469 C 508.027344 271.699219 507.710938 276.75 507.316406 281.71875 L 526.015625 281.71875 C 529.980469 281.71875 533.582031 282.300781 537.105469 282.976562 C 537.496094 277.535156 537.9375 272.140625 537.9375 266.605469 C 537.9375 142.703125 437.128906 41.867188 313.191406 41.867188 C 189.25 41.867188 88.441406 142.703125 88.441406 266.605469 C 88.441406 390.542969 189.25 491.34375 313.191406 491.34375 C 343.117188 491.34375 371.644531 485.351562 397.78125 474.691406 Z M 397.78125 408.910156 " fill-opacity="1" fill-rule="nonzero"/></g><path fill="#f2bd00" d="M 654.644531 517.355469 L 630.816406 517.355469 C 629.664062 517.359375 628.53125 517.203125 627.417969 516.886719 C 626.308594 516.574219 625.257812 516.113281 624.277344 515.507812 C 623.292969 514.898438 622.414062 514.171875 621.632812 513.316406 C 620.855469 512.464844 620.207031 511.519531 619.691406 510.488281 L 611.871094 494.804688 C 611.519531 494.101562 611.003906 493.546875 610.335938 493.136719 C 609.664062 492.726562 608.933594 492.523438 608.148438 492.53125 L 588.457031 492.53125 C 588.1875 492.53125 587.917969 492.503906 587.652344 492.449219 C 587.386719 492.398438 587.125 492.316406 586.875 492.214844 C 586.625 492.109375 586.386719 491.984375 586.160156 491.832031 C 585.933594 491.679688 585.726562 491.507812 585.53125 491.316406 C 585.339844 491.125 585.167969 490.917969 585.019531 490.691406 C 584.867188 490.464844 584.742188 490.226562 584.636719 489.976562 C 584.53125 489.722656 584.453125 489.464844 584.402344 489.199219 C 584.347656 488.933594 584.320312 488.664062 584.320312 488.390625 C 584.320312 488.121094 584.347656 487.851562 584.402344 487.585938 C 584.453125 487.316406 584.53125 487.058594 584.636719 486.808594 C 584.742188 486.558594 584.867188 486.320312 585.019531 486.09375 C 585.167969 485.867188 585.339844 485.65625 585.53125 485.464844 C 585.726562 485.273438 585.933594 485.101562 586.160156 484.949219 C 586.386719 484.800781 586.625 484.671875 586.875 484.570312 C 587.125 484.464844 587.386719 484.386719 587.652344 484.332031 C 587.917969 484.28125 588.1875 484.253906 588.457031 484.253906 L 608.148438 484.253906 C 609.304688 484.25 610.4375 484.40625 611.550781 484.722656 C 612.660156 485.035156 613.707031 485.496094 614.691406 486.101562 C 615.671875 486.710938 616.554688 487.441406 617.335938 488.292969 C 618.113281 489.144531 618.761719 490.089844 619.277344 491.121094 L 627.09375 506.804688 C 627.449219 507.507812 627.960938 508.0625 628.632812 508.472656 C 629.304688 508.882812 630.03125 509.085938 630.816406 509.082031 L 654.644531 509.082031 C 654.917969 509.082031 655.1875 509.105469 655.453125 509.160156 C 655.71875 509.214844 655.976562 509.292969 656.230469 509.394531 C 656.480469 509.5 656.71875 509.625 656.945312 509.777344 C 657.167969 509.929688 657.378906 510.101562 657.570312 510.292969 C 657.761719 510.484375 657.933594 510.695312 658.085938 510.917969 C 658.234375 511.144531 658.363281 511.382812 658.46875 511.636719 C 658.570312 511.886719 658.648438 512.144531 658.703125 512.410156 C 658.757812 512.675781 658.78125 512.945312 658.78125 513.21875 C 658.78125 513.488281 658.757812 513.757812 658.703125 514.027344 C 658.648438 514.292969 658.570312 514.550781 658.46875 514.800781 C 658.363281 515.054688 658.234375 515.292969 658.085938 515.515625 C 657.933594 515.742188 657.761719 515.953125 657.570312 516.144531 C 657.378906 516.335938 657.167969 516.507812 656.945312 516.660156 C 656.71875 516.808594 656.480469 516.9375 656.230469 517.042969 C 655.976562 517.144531 655.71875 517.222656 655.453125 517.277344 C 655.1875 517.328125 654.917969 517.355469 654.644531 517.355469 Z M 654.644531 517.355469 " fill-opacity="1" fill-rule="nonzero"/><path fill="#f2bd00" d="M 675.328125 513.21875 C 675.328125 514.035156 675.25 514.839844 675.089844 515.640625 C 674.933594 516.441406 674.695312 517.214844 674.382812 517.96875 C 674.074219 518.722656 673.691406 519.4375 673.238281 520.113281 C 672.785156 520.792969 672.269531 521.417969 671.695312 521.996094 C 671.117188 522.574219 670.492188 523.085938 669.8125 523.539062 C 669.136719 523.992188 668.421875 524.375 667.667969 524.6875 C 666.914062 525 666.140625 525.234375 665.339844 525.394531 C 664.542969 525.550781 663.734375 525.632812 662.917969 525.632812 C 662.105469 525.632812 661.296875 525.550781 660.496094 525.394531 C 659.699219 525.234375 658.921875 525 658.171875 524.6875 C 657.417969 524.375 656.703125 523.992188 656.023438 523.539062 C 655.347656 523.085938 654.71875 522.574219 654.144531 521.996094 C 653.566406 521.417969 653.054688 520.792969 652.601562 520.113281 C 652.148438 519.4375 651.765625 518.722656 651.453125 517.96875 C 651.140625 517.214844 650.90625 516.441406 650.746094 515.640625 C 650.589844 514.839844 650.507812 514.035156 650.507812 513.21875 C 650.507812 512.402344 650.589844 511.597656 650.746094 510.796875 C 650.90625 509.996094 651.140625 509.222656 651.453125 508.46875 C 651.765625 507.714844 652.148438 507 652.601562 506.320312 C 653.054688 505.644531 653.566406 505.015625 654.144531 504.441406 C 654.71875 503.863281 655.347656 503.351562 656.023438 502.898438 C 656.703125 502.445312 657.417969 502.0625 658.171875 501.75 C 658.921875 501.4375 659.699219 501.203125 660.496094 501.042969 C 661.296875 500.882812 662.105469 500.804688 662.917969 500.804688 C 663.734375 500.804688 664.542969 500.882812 665.339844 501.042969 C 666.140625 501.203125 666.914062 501.4375 667.667969 501.75 C 668.421875 502.0625 669.136719 502.445312 669.8125 502.898438 C 670.492188 503.351562 671.117188 503.863281 671.695312 504.441406 C 672.269531 505.015625 672.785156 505.644531 673.238281 506.320312 C 673.691406 507 674.074219 507.714844 674.382812 508.46875 C 674.695312 509.222656 674.933594 509.996094 675.089844 510.796875 C 675.25 511.597656 675.328125 512.402344 675.328125 513.21875 Z M 667.054688 513.21875 C 667.054688 512.945312 667.03125 512.675781 666.976562 512.410156 C 666.921875 512.144531 666.84375 511.886719 666.742188 511.636719 C 666.636719 511.382812 666.507812 511.144531 666.359375 510.917969 C 666.207031 510.695312 666.035156 510.484375 665.84375 510.292969 C 665.652344 510.101562 665.441406 509.929688 665.21875 509.777344 C 664.992188 509.625 664.753906 509.5 664.503906 509.394531 C 664.25 509.292969 663.992188 509.214844 663.726562 509.160156 C 663.460938 509.105469 663.191406 509.082031 662.917969 509.082031 C 662.648438 509.082031 662.378906 509.105469 662.113281 509.160156 C 661.84375 509.214844 661.585938 509.292969 661.335938 509.394531 C 661.085938 509.5 660.847656 509.625 660.621094 509.777344 C 660.394531 509.929688 660.1875 510.101562 659.992188 510.292969 C 659.800781 510.484375 659.628906 510.695312 659.480469 510.917969 C 659.328125 511.144531 659.203125 511.382812 659.097656 511.636719 C 658.992188 511.886719 658.914062 512.144531 658.863281 512.410156 C 658.808594 512.675781 658.78125 512.945312 658.78125 513.21875 C 658.78125 513.488281 658.808594 513.757812 658.863281 514.027344 C 658.914062 514.292969 658.992188 514.550781 659.097656 514.800781 C 659.203125 515.054688 659.328125 515.292969 659.480469 515.515625 C 659.628906 515.742188 659.800781 515.953125 659.992188 516.144531 C 660.1875 516.335938 660.394531 516.507812 660.621094 516.660156 C 660.847656 516.808594 661.085938 516.9375 661.335938 517.042969 C 661.585938 517.144531 661.84375 517.222656 662.113281 517.277344 C 662.378906 517.328125 662.648438 517.355469 662.917969 517.355469 C 663.191406 517.355469 663.460938 517.328125 663.726562 517.277344 C 663.992188 517.222656 664.25 517.144531 664.503906 517.042969 C 664.753906 516.9375 664.992188 516.808594 665.21875 516.660156 C 665.441406 516.507812 665.652344 516.335938 665.84375 516.144531 C 666.035156 515.953125 666.207031 515.742188 666.359375 515.515625 C 666.507812 515.292969 666.636719 515.054688 666.742188 514.800781 C 666.84375 514.550781 666.921875 514.292969 666.976562 514.027344 C 667.03125 513.757812 667.054688 513.488281 667.054688 513.21875 Z M 667.054688 513.21875 " fill-opacity="1" fill-rule="nonzero"/><path fill="#f2bd00" d="M 608.148438 426.324219 L 588.457031 426.324219 C 588.1875 426.324219 587.917969 426.296875 587.652344 426.246094 C 587.386719 426.191406 587.125 426.113281 586.875 426.007812 C 586.625 425.90625 586.386719 425.777344 586.160156 425.628906 C 585.933594 425.476562 585.726562 425.304688 585.53125 425.113281 C 585.339844 424.921875 585.167969 424.710938 585.019531 424.484375 C 584.867188 424.257812 584.742188 424.019531 584.636719 423.769531 C 584.53125 423.519531 584.453125 423.261719 584.402344 422.992188 C 584.347656 422.726562 584.320312 422.457031 584.320312 422.1875 C 584.320312 421.914062 584.347656 421.644531 584.402344 421.378906 C 584.453125 421.113281 584.53125 420.855469 584.636719 420.601562 C 584.742188 420.351562 584.867188 420.113281 585.019531 419.886719 C 585.167969 419.660156 585.339844 419.453125 585.53125 419.261719 C 585.726562 419.070312 585.933594 418.898438 586.160156 418.746094 C 586.386719 418.59375 586.625 418.46875 586.875 418.363281 C 587.125 418.261719 587.386719 418.179688 587.652344 418.128906 C 587.917969 418.074219 588.1875 418.050781 588.457031 418.050781 L 608.148438 418.050781 C 608.933594 418.054688 609.664062 417.851562 610.335938 417.441406 C 611.003906 417.03125 611.519531 416.476562 611.871094 415.773438 L 619.691406 400.089844 C 620.207031 399.058594 620.855469 398.113281 621.632812 397.261719 C 622.414062 396.410156 623.292969 395.679688 624.277344 395.070312 C 625.257812 394.464844 626.308594 394.003906 627.417969 393.691406 C 628.53125 393.375 629.664062 393.21875 630.816406 393.222656 L 654.644531 393.222656 C 654.917969 393.222656 655.1875 393.25 655.453125 393.300781 C 655.71875 393.355469 655.976562 393.433594 656.230469 393.539062 C 656.480469 393.640625 656.71875 393.769531 656.945312 393.917969 C 657.167969 394.070312 657.378906 394.242188 657.570312 394.433594 C 657.761719 394.625 657.933594 394.835938 658.085938 395.0625 C 658.234375 395.285156 658.363281 395.527344 658.46875 395.777344 C 658.570312 396.027344 658.648438 396.285156 658.703125 396.554688 C 658.757812 396.820312 658.78125 397.089844 658.78125 397.359375 C 658.78125 397.632812 658.757812 397.902344 658.703125 398.167969 C 658.648438 398.433594 658.570312 398.691406 658.46875 398.945312 C 658.363281 399.195312 658.234375 399.433594 658.085938 399.660156 C 657.933594 399.882812 657.761719 400.09375 657.570312 400.285156 C 657.378906 400.476562 657.167969 400.648438 656.945312 400.800781 C 656.71875 400.953125 656.480469 401.078125 656.230469 401.183594 C 655.976562 401.285156 655.71875 401.367188 655.453125 401.417969 C 655.1875 401.472656 654.917969 401.496094 654.644531 401.496094 L 630.816406 401.496094 C 630.03125 401.492188 629.304688 401.695312 628.632812 402.105469 C 627.960938 402.515625 627.449219 403.070312 627.09375 403.773438 L 619.277344 419.457031 C 618.761719 420.488281 618.113281 421.433594 617.335938 422.285156 C 616.554688 423.136719 615.671875 423.867188 614.691406 424.476562 C 613.707031 425.082031 612.660156 425.542969 611.550781 425.855469 C 610.4375 426.171875 609.304688 426.328125 608.148438 426.324219 Z M 608.148438 426.324219 " fill-opacity="1" fill-rule="nonzero"/><path fill="#f2bd00" d="M 658.78125 459.425781 L 580.183594 459.425781 C 579.914062 459.425781 579.644531 459.402344 579.378906 459.347656 C 579.113281 459.292969 578.851562 459.214844 578.601562 459.113281 C 578.351562 459.007812 578.113281 458.878906 577.886719 458.730469 C 577.660156 458.578125 577.453125 458.40625 577.257812 458.214844 C 577.066406 458.023438 576.894531 457.8125 576.746094 457.589844 C 576.59375 457.363281 576.46875 457.125 576.363281 456.871094 C 576.257812 456.621094 576.179688 456.363281 576.128906 456.097656 C 576.074219 455.828125 576.046875 455.5625 576.046875 455.289062 C 576.046875 455.015625 576.074219 454.75 576.128906 454.480469 C 576.179688 454.214844 576.257812 453.957031 576.363281 453.707031 C 576.46875 453.453125 576.59375 453.214844 576.746094 452.992188 C 576.894531 452.765625 577.066406 452.554688 577.257812 452.363281 C 577.453125 452.171875 577.660156 452 577.886719 451.847656 C 578.113281 451.699219 578.351562 451.570312 578.601562 451.464844 C 578.851562 451.363281 579.113281 451.285156 579.378906 451.230469 C 579.644531 451.179688 579.914062 451.152344 580.183594 451.152344 L 658.78125 451.152344 C 659.054688 451.152344 659.324219 451.179688 659.589844 451.230469 C 659.855469 451.285156 660.113281 451.363281 660.367188 451.464844 C 660.617188 451.570312 660.855469 451.699219 661.082031 451.847656 C 661.304688 452 661.515625 452.171875 661.707031 452.363281 C 661.898438 452.554688 662.070312 452.765625 662.222656 452.992188 C 662.371094 453.214844 662.5 453.453125 662.605469 453.707031 C 662.707031 453.957031 662.785156 454.214844 662.839844 454.480469 C 662.894531 454.75 662.917969 455.015625 662.917969 455.289062 C 662.917969 455.5625 662.894531 455.828125 662.839844 456.097656 C 662.785156 456.363281 662.707031 456.621094 662.605469 456.871094 C 662.5 457.125 662.371094 457.363281 662.222656 457.589844 C 662.070312 457.8125 661.898438 458.023438 661.707031 458.214844 C 661.515625 458.40625 661.304688 458.578125 661.082031 458.730469 C 660.855469 458.878906 660.617188 459.007812 660.367188 459.113281 C 660.113281 459.214844 659.855469 459.292969 659.589844 459.347656 C 659.324219 459.402344 659.054688 459.425781 658.78125 459.425781 Z M 658.78125 459.425781 " fill-opacity="1" fill-rule="nonzero"/><g clip-path="url(#6de28c5e6e)"><path fill="#f2bd00" d="M 567.773438 389.085938 C 567.230469 389.085938 566.695312 389.03125 566.160156 388.925781 C 565.628906 388.820312 565.109375 388.664062 564.609375 388.453125 C 564.105469 388.246094 563.628906 387.992188 563.179688 387.691406 C 562.726562 387.386719 562.308594 387.042969 561.925781 386.660156 C 561.539062 386.277344 561.199219 385.859375 560.894531 385.40625 C 560.59375 384.953125 560.339844 384.476562 560.132812 383.976562 C 559.921875 383.472656 559.765625 382.957031 559.660156 382.421875 C 559.554688 381.890625 559.5 381.351562 559.5 380.808594 L 559.5 355.980469 C 559.5 354.492188 559.429688 353.003906 559.28125 351.519531 C 559.136719 350.039062 558.917969 348.5625 558.625 347.101562 C 558.335938 345.640625 557.972656 344.195312 557.542969 342.769531 C 557.109375 341.34375 556.609375 339.941406 556.039062 338.5625 C 555.46875 337.1875 554.832031 335.839844 554.128906 334.527344 C 553.425781 333.210938 552.660156 331.933594 551.832031 330.695312 C 551.003906 329.457031 550.117188 328.257812 549.171875 327.105469 C 548.226562 325.953125 547.226562 324.851562 546.171875 323.796875 C 545.121094 322.742188 544.015625 321.742188 542.863281 320.796875 C 541.710938 319.851562 540.515625 318.964844 539.277344 318.136719 C 538.039062 317.308594 536.761719 316.542969 535.449219 315.839844 C 534.132812 315.136719 532.789062 314.5 531.410156 313.929688 C 530.035156 313.359375 528.632812 312.859375 527.207031 312.425781 C 525.78125 311.992188 524.335938 311.632812 522.875 311.339844 C 521.414062 311.050781 519.941406 310.832031 518.457031 310.683594 C 516.972656 310.539062 515.488281 310.464844 513.996094 310.464844 C 512.507812 310.464844 511.019531 310.539062 509.539062 310.683594 C 508.054688 310.832031 506.582031 311.050781 505.121094 311.339844 C 503.660156 311.632812 502.214844 311.992188 500.789062 312.425781 C 499.363281 312.859375 497.960938 313.359375 496.582031 313.929688 C 495.207031 314.5 493.859375 315.136719 492.546875 315.839844 C 491.234375 316.542969 489.957031 317.308594 488.714844 318.136719 C 487.476562 318.964844 486.28125 319.851562 485.128906 320.796875 C 483.976562 321.742188 482.875 322.742188 481.820312 323.796875 C 480.765625 324.851562 479.769531 325.953125 478.824219 327.105469 C 477.875 328.257812 476.988281 329.457031 476.164062 330.695312 C 475.335938 331.933594 474.570312 333.210938 473.867188 334.527344 C 473.164062 335.839844 472.527344 337.1875 471.957031 338.5625 C 471.386719 339.941406 470.886719 341.34375 470.453125 342.769531 C 470.019531 344.195312 469.660156 345.640625 469.367188 347.101562 C 469.078125 348.5625 468.859375 350.039062 468.710938 351.519531 C 468.566406 353.003906 468.492188 354.492188 468.492188 355.980469 L 468.492188 380.808594 C 468.492188 381.351562 468.441406 381.890625 468.335938 382.421875 C 468.226562 382.957031 468.070312 383.472656 467.863281 383.976562 C 467.65625 384.476562 467.402344 384.953125 467.097656 385.40625 C 466.796875 385.859375 466.453125 386.277344 466.070312 386.660156 C 465.6875 387.042969 465.269531 387.386719 464.816406 387.691406 C 464.363281 387.992188 463.886719 388.246094 463.386719 388.453125 C 462.882812 388.664062 462.367188 388.820312 461.835938 388.925781 C 461.300781 389.03125 460.761719 389.085938 460.21875 389.085938 C 459.675781 389.085938 459.140625 389.03125 458.605469 388.925781 C 458.074219 388.820312 457.554688 388.664062 457.054688 388.453125 C 456.550781 388.246094 456.074219 387.992188 455.625 387.691406 C 455.171875 387.386719 454.753906 387.042969 454.371094 386.660156 C 453.984375 386.277344 453.644531 385.859375 453.339844 385.40625 C 453.039062 384.953125 452.785156 384.476562 452.578125 383.976562 C 452.367188 383.472656 452.210938 382.957031 452.105469 382.421875 C 452 381.890625 451.945312 381.351562 451.945312 380.808594 L 451.945312 355.980469 C 451.945312 353.949219 452.046875 351.921875 452.246094 349.898438 C 452.445312 347.875 452.742188 345.867188 453.140625 343.875 C 453.535156 341.878906 454.027344 339.910156 454.617188 337.964844 C 455.207031 336.019531 455.890625 334.109375 456.667969 332.230469 C 457.449219 330.351562 458.316406 328.515625 459.273438 326.722656 C 460.230469 324.929688 461.273438 323.191406 462.402344 321.5 C 463.53125 319.808594 464.742188 318.179688 466.03125 316.605469 C 467.320312 315.035156 468.683594 313.53125 470.121094 312.09375 C 471.558594 310.65625 473.0625 309.292969 474.632812 308.003906 C 476.203125 306.714844 477.832031 305.503906 479.523438 304.375 C 481.214844 303.246094 482.953125 302.203125 484.746094 301.242188 C 486.539062 300.285156 488.375 299.417969 490.25 298.640625 C 492.128906 297.863281 494.039062 297.175781 495.984375 296.585938 C 497.929688 295.996094 499.898438 295.503906 501.890625 295.109375 C 503.886719 294.710938 505.894531 294.414062 507.914062 294.214844 C 509.9375 294.015625 511.964844 293.914062 513.996094 293.914062 C 516.03125 293.914062 518.058594 294.015625 520.078125 294.214844 C 522.101562 294.414062 524.109375 294.710938 526.101562 295.109375 C 528.097656 295.503906 530.066406 295.996094 532.007812 296.585938 C 533.953125 297.175781 535.867188 297.863281 537.742188 298.640625 C 539.621094 299.417969 541.457031 300.285156 543.246094 301.242188 C 545.039062 302.203125 546.78125 303.246094 548.472656 304.375 C 550.160156 305.503906 551.789062 306.714844 553.363281 308.003906 C 554.933594 309.292969 556.4375 310.65625 557.875 312.09375 C 559.3125 313.53125 560.675781 315.035156 561.964844 316.605469 C 563.253906 318.179688 564.460938 319.808594 565.589844 321.5 C 566.71875 323.191406 567.761719 324.929688 568.722656 326.722656 C 569.679688 328.515625 570.546875 330.351562 571.324219 332.230469 C 572.101562 334.109375 572.785156 336.019531 573.375 337.964844 C 573.964844 339.910156 574.460938 341.878906 574.855469 343.875 C 575.253906 345.867188 575.550781 347.875 575.75 349.898438 C 575.949219 351.921875 576.046875 353.949219 576.046875 355.980469 L 576.046875 380.808594 C 576.046875 381.351562 575.996094 381.890625 575.890625 382.421875 C 575.78125 382.957031 575.625 383.472656 575.417969 383.976562 C 575.210938 384.476562 574.957031 384.953125 574.652344 385.40625 C 574.351562 385.859375 574.007812 386.277344 573.625 386.660156 C 573.242188 387.042969 572.824219 387.386719 572.371094 387.691406 C 571.917969 387.992188 571.441406 388.246094 570.941406 388.453125 C 570.4375 388.664062 569.921875 388.820312 569.390625 388.925781 C 568.855469 389.03125 568.316406 389.085938 567.773438 389.085938 Z M 567.773438 389.085938 " fill-opacity="1" fill-rule="nonzero"/></g><path fill="#1c4e8e" d="M 447.808594 376.671875 L 580.183594 376.671875 C 580.726562 376.671875 581.265625 376.699219 581.808594 376.75 C 582.347656 376.804688 582.882812 376.882812 583.414062 376.988281 C 583.945312 377.09375 584.46875 377.226562 584.988281 377.382812 C 585.507812 377.542969 586.015625 377.722656 586.515625 377.929688 C 587.019531 378.136719 587.507812 378.371094 587.984375 378.625 C 588.460938 378.882812 588.925781 379.160156 589.378906 379.460938 C 589.828125 379.761719 590.261719 380.085938 590.683594 380.429688 C 591.101562 380.773438 591.503906 381.136719 591.886719 381.519531 C 592.269531 381.902344 592.632812 382.304688 592.976562 382.722656 C 593.320312 383.140625 593.640625 383.574219 593.941406 384.027344 C 594.242188 384.476562 594.523438 384.941406 594.777344 385.421875 C 595.035156 385.898438 595.265625 386.386719 595.472656 386.886719 C 595.679688 387.390625 595.863281 387.898438 596.019531 388.417969 C 596.175781 388.9375 596.308594 389.460938 596.414062 389.992188 C 596.519531 390.523438 596.597656 391.058594 596.652344 391.601562 C 596.707031 392.140625 596.730469 392.679688 596.730469 393.222656 L 596.730469 517.355469 C 596.730469 517.898438 596.707031 518.4375 596.652344 518.976562 C 596.597656 519.519531 596.519531 520.054688 596.414062 520.585938 C 596.308594 521.117188 596.175781 521.640625 596.019531 522.160156 C 595.863281 522.679688 595.679688 523.1875 595.472656 523.691406 C 595.265625 524.191406 595.035156 524.679688 594.777344 525.160156 C 594.523438 525.636719 594.242188 526.101562 593.941406 526.550781 C 593.640625 527.003906 593.320312 527.4375 592.976562 527.855469 C 592.632812 528.273438 592.269531 528.675781 591.886719 529.058594 C 591.503906 529.441406 591.101562 529.804688 590.683594 530.148438 C 590.261719 530.496094 589.828125 530.816406 589.378906 531.117188 C 588.925781 531.417969 588.460938 531.699219 587.984375 531.953125 C 587.507812 532.207031 587.019531 532.441406 586.515625 532.648438 C 586.015625 532.855469 585.507812 533.039062 584.988281 533.195312 C 584.46875 533.351562 583.945312 533.484375 583.414062 533.589844 C 582.882812 533.695312 582.347656 533.773438 581.808594 533.828125 C 581.265625 533.878906 580.726562 533.90625 580.183594 533.90625 L 447.808594 533.90625 C 447.269531 533.90625 446.726562 533.878906 446.1875 533.828125 C 445.648438 533.773438 445.113281 533.695312 444.582031 533.589844 C 444.050781 533.484375 443.523438 533.351562 443.007812 533.195312 C 442.488281 533.039062 441.976562 532.855469 441.476562 532.648438 C 440.976562 532.441406 440.488281 532.207031 440.007812 531.953125 C 439.53125 531.699219 439.066406 531.417969 438.617188 531.117188 C 438.167969 530.816406 437.730469 530.496094 437.3125 530.152344 C 436.894531 529.804688 436.492188 529.441406 436.109375 529.058594 C 435.726562 528.675781 435.363281 528.273438 435.019531 527.855469 C 434.675781 527.4375 434.351562 527.003906 434.050781 526.550781 C 433.75 526.101562 433.472656 525.636719 433.214844 525.160156 C 432.960938 524.679688 432.730469 524.191406 432.523438 523.691406 C 432.316406 523.1875 432.132812 522.679688 431.976562 522.160156 C 431.816406 521.640625 431.6875 521.117188 431.582031 520.585938 C 431.476562 520.054688 431.394531 519.519531 431.34375 518.976562 C 431.289062 518.4375 431.261719 517.898438 431.261719 517.355469 L 431.261719 393.222656 C 431.261719 392.679688 431.289062 392.140625 431.34375 391.601562 C 431.394531 391.058594 431.476562 390.523438 431.582031 389.992188 C 431.6875 389.460938 431.816406 388.9375 431.976562 388.417969 C 432.132812 387.898438 432.316406 387.390625 432.523438 386.886719 C 432.730469 386.386719 432.960938 385.898438 433.214844 385.421875 C 433.472656 384.941406 433.75 384.476562 434.050781 384.027344 C 434.351562 383.574219 434.675781 383.140625 435.019531 382.722656 C 435.363281 382.304688 435.726562 381.902344 436.109375 381.519531 C 436.492188 381.136719 436.894531 380.773438 437.3125 380.429688 C 437.730469 380.085938 438.167969 379.761719 438.617188 379.460938 C 439.066406 379.160156 439.53125 378.882812 440.007812 378.625 C 440.488281 378.371094 440.976562 378.136719 441.476562 377.929688 C 441.976562 377.722656 442.488281 377.542969 443.007812 377.382812 C 443.523438 377.226562 444.050781 377.09375 444.582031 376.988281 C 445.113281 376.882812 445.648438 376.804688 446.1875 376.75 C 446.726562 376.699219 447.269531 376.671875 447.808594 376.671875 Z M 447.808594 376.671875 " fill-opacity="1" fill-rule="nonzero"/><path fill="#808994" d="M 559.5 455.289062 C 559.5 456.78125 559.429688 458.265625 559.28125 459.75 C 559.136719 461.234375 558.917969 462.707031 558.625 464.167969 C 558.335938 465.632812 557.972656 467.074219 557.542969 468.5 C 557.109375 469.929688 556.609375 471.328125 556.039062 472.707031 C 555.46875 474.085938 554.832031 475.429688 554.128906 476.746094 C 553.425781 478.058594 552.660156 479.335938 551.832031 480.578125 C 551.003906 481.816406 550.117188 483.011719 549.171875 484.164062 C 548.226562 485.316406 547.226562 486.417969 546.171875 487.472656 C 545.121094 488.527344 544.015625 489.527344 542.863281 490.472656 C 541.710938 491.417969 540.515625 492.304688 539.277344 493.132812 C 538.039062 493.960938 536.761719 494.726562 535.449219 495.429688 C 534.132812 496.132812 532.789062 496.769531 531.410156 497.339844 C 530.035156 497.910156 528.632812 498.414062 527.207031 498.84375 C 525.78125 499.277344 524.335938 499.640625 522.875 499.929688 C 521.414062 500.222656 519.941406 500.441406 518.457031 500.585938 C 516.972656 500.730469 515.488281 500.804688 513.996094 500.804688 C 512.507812 500.804688 511.019531 500.730469 509.539062 500.585938 C 508.054688 500.441406 506.582031 500.222656 505.121094 499.929688 C 503.660156 499.640625 502.214844 499.277344 500.789062 498.84375 C 499.363281 498.414062 497.960938 497.910156 496.582031 497.339844 C 495.207031 496.769531 493.859375 496.132812 492.546875 495.429688 C 491.234375 494.726562 489.957031 493.960938 488.714844 493.132812 C 487.476562 492.304688 486.28125 491.417969 485.128906 490.472656 C 483.976562 489.527344 482.875 488.527344 481.820312 487.472656 C 480.765625 486.417969 479.769531 485.316406 478.824219 484.164062 C 477.875 483.011719 476.988281 481.816406 476.164062 480.578125 C 475.335938 479.335938 474.570312 478.058594 473.867188 476.746094 C 473.164062 475.429688 472.527344 474.085938 471.957031 472.707031 C 471.386719 471.328125 470.886719 469.929688 470.453125 468.5 C 470.019531 467.074219 469.660156 465.632812 469.367188 464.167969 C 469.078125 462.707031 468.859375 461.234375 468.710938 459.75 C 468.566406 458.265625 468.492188 456.78125 468.492188 455.289062 C 468.492188 453.796875 468.566406 452.3125 468.710938 450.828125 C 468.859375 449.34375 469.078125 447.871094 469.367188 446.410156 C 469.660156 444.949219 470.019531 443.503906 470.453125 442.078125 C 470.886719 440.648438 471.386719 439.25 471.957031 437.871094 C 472.527344 436.492188 473.164062 435.148438 473.867188 433.832031 C 474.570312 432.519531 475.335938 431.242188 476.164062 430 C 476.988281 428.761719 477.875 427.566406 478.824219 426.414062 C 479.769531 425.261719 480.765625 424.160156 481.820312 423.105469 C 482.875 422.050781 483.976562 421.050781 485.128906 420.105469 C 486.28125 419.160156 487.476562 418.273438 488.714844 417.445312 C 489.957031 416.617188 491.234375 415.851562 492.546875 415.148438 C 493.859375 414.445312 495.207031 413.808594 496.582031 413.238281 C 497.960938 412.667969 499.363281 412.164062 500.789062 411.734375 C 502.214844 411.300781 503.660156 410.9375 505.121094 410.648438 C 506.582031 410.355469 508.054688 410.140625 509.539062 409.992188 C 511.019531 409.847656 512.507812 409.773438 513.996094 409.773438 C 515.488281 409.773438 516.972656 409.847656 518.457031 409.992188 C 519.941406 410.140625 521.414062 410.355469 522.875 410.648438 C 524.335938 410.9375 525.78125 411.300781 527.207031 411.734375 C 528.632812 412.164062 530.035156 412.667969 531.410156 413.238281 C 532.789062 413.808594 534.132812 414.445312 535.449219 415.148438 C 536.761719 415.851562 538.039062 416.617188 539.277344 417.445312 C 540.515625 418.273438 541.710938 419.160156 542.863281 420.105469 C 544.015625 421.050781 545.121094 422.050781 546.171875 423.105469 C 547.226562 424.160156 548.226562 425.261719 549.171875 426.414062 C 550.117188 427.566406 551.003906 428.761719 551.832031 430 C 552.660156 431.242188 553.425781 432.519531 554.128906 433.832031 C 554.832031 435.148438 555.46875 436.492188 556.039062 437.871094 C 556.609375 439.25 557.109375 440.648438 557.542969 442.078125 C 557.972656 443.503906 558.335938 444.949219 558.625 446.410156 C 558.917969 447.871094 559.136719 449.34375 559.28125 450.828125 C 559.429688 452.3125 559.5 453.796875 559.5 455.289062 Z M 559.5 455.289062 " fill-opacity="1" fill-rule="nonzero"/><path fill="#f3f3f3" d="M 502.992188 473.535156 L 490.582031 461.125 C 490.246094 460.730469 489.949219 460.3125 489.695312 459.863281 C 489.4375 459.414062 489.222656 458.949219 489.054688 458.460938 C 488.882812 457.972656 488.761719 457.472656 488.683594 456.960938 C 488.609375 456.449219 488.582031 455.9375 488.601562 455.421875 C 488.621094 454.90625 488.6875 454.394531 488.804688 453.890625 C 488.917969 453.386719 489.078125 452.898438 489.285156 452.425781 C 489.492188 451.953125 489.742188 451.503906 490.03125 451.078125 C 490.324219 450.648438 490.652344 450.253906 491.015625 449.890625 C 491.382812 449.523438 491.777344 449.195312 492.203125 448.90625 C 492.632812 448.613281 493.082031 448.363281 493.554688 448.15625 C 494.027344 447.949219 494.515625 447.789062 495.019531 447.675781 C 495.523438 447.558594 496.03125 447.492188 496.546875 447.472656 C 497.0625 447.453125 497.578125 447.480469 498.089844 447.554688 C 498.597656 447.632812 499.097656 447.753906 499.585938 447.925781 C 500.074219 448.09375 500.542969 448.308594 500.988281 448.566406 C 501.4375 448.824219 501.855469 449.117188 502.25 449.453125 L 508.828125 455.992188 L 525.746094 439.109375 C 526.136719 438.773438 526.558594 438.476562 527.003906 438.21875 C 527.453125 437.964844 527.921875 437.75 528.410156 437.578125 C 528.894531 437.410156 529.394531 437.289062 529.90625 437.210938 C 530.417969 437.136719 530.929688 437.105469 531.445312 437.125 C 531.960938 437.148438 532.472656 437.214844 532.976562 437.328125 C 533.480469 437.445312 533.96875 437.605469 534.441406 437.8125 C 534.914062 438.019531 535.363281 438.269531 535.789062 438.558594 C 536.214844 438.851562 536.613281 439.179688 536.976562 439.542969 C 537.34375 439.910156 537.671875 440.304688 537.960938 440.730469 C 538.253906 441.160156 538.5 441.609375 538.707031 442.082031 C 538.914062 442.554688 539.074219 443.042969 539.191406 443.546875 C 539.308594 444.050781 539.375 444.558594 539.394531 445.078125 C 539.414062 445.59375 539.386719 446.105469 539.308594 446.617188 C 539.234375 447.128906 539.109375 447.628906 538.941406 448.113281 C 538.773438 448.601562 538.558594 449.070312 538.300781 449.519531 C 538.042969 449.964844 537.746094 450.386719 537.410156 450.777344 L 514.660156 473.535156 C 514.273438 473.917969 513.859375 474.257812 513.40625 474.558594 C 512.957031 474.859375 512.480469 475.113281 511.980469 475.316406 C 511.480469 475.523438 510.964844 475.679688 510.433594 475.785156 C 509.902344 475.890625 509.367188 475.941406 508.828125 475.941406 C 508.285156 475.941406 507.75 475.890625 507.21875 475.785156 C 506.6875 475.679688 506.171875 475.523438 505.671875 475.316406 C 505.171875 475.113281 504.695312 474.859375 504.246094 474.558594 C 503.792969 474.257812 503.378906 473.917969 502.992188 473.535156 Z M 502.992188 473.535156 " fill-opacity="1" fill-rule="nonzero"/><path fill="#f2bd00" d="M 662.917969 409.773438 C 662.105469 409.773438 661.296875 409.695312 660.496094 409.535156 C 659.699219 409.375 658.921875 409.140625 658.171875 408.828125 C 657.417969 408.515625 656.703125 408.132812 656.023438 407.679688 C 655.347656 407.226562 654.71875 406.714844 654.144531 406.136719 C 653.566406 405.5625 653.054688 404.933594 652.601562 404.257812 C 652.148438 403.578125 651.765625 402.863281 651.453125 402.109375 C 651.140625 401.355469 650.90625 400.582031 650.746094 399.78125 C 650.589844 398.980469 650.507812 398.175781 650.507812 397.359375 C 650.507812 396.546875 650.589844 395.738281 650.746094 394.9375 C 650.90625 394.140625 651.140625 393.363281 651.453125 392.609375 C 651.765625 391.855469 652.148438 391.140625 652.601562 390.464844 C 653.054688 389.785156 653.566406 389.160156 654.144531 388.582031 C 654.71875 388.007812 655.347656 387.492188 656.023438 387.039062 C 656.703125 386.585938 657.417969 386.203125 658.171875 385.890625 C 658.921875 385.578125 659.699219 385.34375 660.496094 385.183594 C 661.296875 385.027344 662.105469 384.945312 662.917969 384.945312 C 663.734375 384.945312 664.542969 385.027344 665.339844 385.183594 C 666.140625 385.34375 666.914062 385.578125 667.667969 385.890625 C 668.421875 386.203125 669.136719 386.585938 669.8125 387.039062 C 670.492188 387.492188 671.117188 388.007812 671.695312 388.582031 C 672.269531 389.160156 672.785156 389.785156 673.238281 390.464844 C 673.691406 391.140625 674.074219 391.855469 674.382812 392.609375 C 674.695312 393.363281 674.933594 394.140625 675.089844 394.9375 C 675.25 395.738281 675.328125 396.546875 675.328125 397.359375 C 675.328125 398.175781 675.25 398.980469 675.089844 399.78125 C 674.933594 400.582031 674.695312 401.355469 674.382812 402.109375 C 674.074219 402.863281 673.691406 403.578125 673.238281 404.257812 C 672.785156 404.933594 672.269531 405.5625 671.695312 406.136719 C 671.117188 406.714844 670.492188 407.226562 669.8125 407.679688 C 669.136719 408.132812 668.421875 408.515625 667.667969 408.828125 C 666.914062 409.140625 666.140625 409.375 665.339844 409.535156 C 664.542969 409.695312 663.734375 409.773438 662.917969 409.773438 Z M 662.917969 393.222656 C 662.648438 393.222656 662.378906 393.25 662.113281 393.300781 C 661.84375 393.355469 661.585938 393.433594 661.335938 393.539062 C 661.085938 393.640625 660.847656 393.769531 660.621094 393.917969 C 660.394531 394.070312 660.1875 394.242188 659.992188 394.433594 C 659.800781 394.625 659.628906 394.835938 659.480469 395.0625 C 659.328125 395.285156 659.203125 395.527344 659.097656 395.777344 C 658.992188 396.027344 658.914062 396.285156 658.863281 396.554688 C 658.808594 396.820312 658.78125 397.089844 658.78125 397.359375 C 658.78125 397.632812 658.808594 397.902344 658.863281 398.167969 C 658.914062 398.433594 658.992188 398.691406 659.097656 398.945312 C 659.203125 399.195312 659.328125 399.433594 659.480469 399.660156 C 659.628906 399.882812 659.800781 400.09375 659.992188 400.285156 C 660.1875 400.476562 660.394531 400.648438 660.621094 400.800781 C 660.847656 400.953125 661.085938 401.078125 661.335938 401.183594 C 661.585938 401.285156 661.84375 401.367188 662.113281 401.417969 C 662.378906 401.472656 662.648438 401.496094 662.917969 401.496094 C 663.191406 401.496094 663.460938 401.472656 663.726562 401.417969 C 663.992188 401.367188 664.25 401.285156 664.503906 401.183594 C 664.753906 401.078125 664.992188 400.953125 665.21875 400.800781 C 665.441406 400.648438 665.652344 400.476562 665.84375 400.285156 C 666.035156 400.09375 666.207031 399.882812 666.359375 399.660156 C 666.507812 399.433594 666.636719 399.195312 666.742188 398.945312 C 666.84375 398.691406 666.921875 398.433594 666.976562 398.167969 C 667.03125 397.902344 667.054688 397.632812 667.054688 397.359375 C 667.054688 397.089844 667.03125 396.820312 666.976562 396.550781 C 666.921875 396.285156 666.84375 396.027344 666.742188 395.777344 C 666.636719 395.527344 666.507812 395.285156 666.359375 395.0625 C 666.207031 394.835938 666.035156 394.625 665.84375 394.433594 C 665.652344 394.242188 665.441406 394.070312 665.21875 393.917969 C 664.992188 393.769531 664.753906 393.640625 664.503906 393.539062 C 664.25 393.433594 663.992188 393.355469 663.726562 393.300781 C 663.460938 393.25 663.191406 393.222656 662.917969 393.222656 Z M 662.917969 393.222656 " fill-opacity="1" fill-rule="nonzero"/><g clip-path="url(#a81e5e7c8e)"><path fill="#f2bd00" d="M 667.054688 467.703125 C 666.242188 467.703125 665.433594 467.625 664.632812 467.464844 C 663.835938 467.304688 663.058594 467.070312 662.308594 466.757812 C 661.554688 466.445312 660.839844 466.0625 660.160156 465.609375 C 659.484375 465.15625 658.855469 464.644531 658.28125 464.066406 C 657.703125 463.492188 657.191406 462.863281 656.738281 462.1875 C 656.285156 461.507812 655.902344 460.792969 655.589844 460.039062 C 655.277344 459.285156 655.042969 458.511719 654.882812 457.710938 C 654.726562 456.910156 654.644531 456.105469 654.644531 455.289062 C 654.644531 454.472656 654.726562 453.667969 654.882812 452.867188 C 655.042969 452.066406 655.277344 451.292969 655.589844 450.539062 C 655.902344 449.785156 656.285156 449.070312 656.738281 448.394531 C 657.191406 447.714844 657.703125 447.089844 658.28125 446.511719 C 658.855469 445.933594 659.484375 445.421875 660.160156 444.96875 C 660.839844 444.515625 661.554688 444.132812 662.308594 443.820312 C 663.058594 443.507812 663.835938 443.273438 664.632812 443.113281 C 665.433594 442.957031 666.242188 442.875 667.054688 442.875 C 667.871094 442.875 668.679688 442.957031 669.476562 443.113281 C 670.277344 443.273438 671.050781 443.507812 671.804688 443.820312 C 672.558594 444.132812 673.273438 444.515625 673.949219 444.96875 C 674.628906 445.421875 675.253906 445.933594 675.832031 446.511719 C 676.40625 447.089844 676.921875 447.714844 677.375 448.394531 C 677.828125 449.070312 678.210938 449.785156 678.519531 450.539062 C 678.832031 451.292969 679.070312 452.066406 679.226562 452.867188 C 679.386719 453.667969 679.464844 454.472656 679.464844 455.289062 C 679.464844 456.105469 679.386719 456.910156 679.226562 457.710938 C 679.070312 458.511719 678.832031 459.285156 678.519531 460.039062 C 678.210938 460.792969 677.828125 461.507812 677.375 462.1875 C 676.921875 462.863281 676.40625 463.492188 675.832031 464.066406 C 675.253906 464.644531 674.628906 465.15625 673.949219 465.609375 C 673.273438 466.0625 672.558594 466.445312 671.804688 466.757812 C 671.050781 467.070312 670.277344 467.304688 669.476562 467.464844 C 668.679688 467.625 667.871094 467.703125 667.054688 467.703125 Z M 667.054688 451.152344 C 666.785156 451.152344 666.515625 451.179688 666.25 451.230469 C 665.980469 451.285156 665.722656 451.363281 665.472656 451.464844 C 665.222656 451.570312 664.984375 451.699219 664.757812 451.847656 C 664.53125 452 664.324219 452.171875 664.128906 452.363281 C 663.9375 452.554688 663.765625 452.765625 663.617188 452.992188 C 663.464844 453.214844 663.339844 453.453125 663.234375 453.707031 C 663.128906 453.957031 663.050781 454.214844 663 454.480469 C 662.945312 454.75 662.917969 455.015625 662.917969 455.289062 C 662.917969 455.5625 662.945312 455.828125 663 456.097656 C 663.050781 456.363281 663.128906 456.621094 663.234375 456.871094 C 663.339844 457.125 663.464844 457.363281 663.617188 457.589844 C 663.765625 457.8125 663.9375 458.023438 664.128906 458.214844 C 664.324219 458.40625 664.53125 458.578125 664.757812 458.730469 C 664.984375 458.878906 665.222656 459.007812 665.472656 459.113281 C 665.722656 459.214844 665.980469 459.292969 666.25 459.347656 C 666.515625 459.402344 666.785156 459.425781 667.054688 459.425781 C 667.328125 459.425781 667.597656 459.402344 667.863281 459.347656 C 668.128906 459.292969 668.386719 459.214844 668.640625 459.113281 C 668.890625 459.007812 669.128906 458.878906 669.355469 458.730469 C 669.578125 458.578125 669.789062 458.40625 669.980469 458.214844 C 670.171875 458.023438 670.34375 457.8125 670.496094 457.589844 C 670.644531 457.363281 670.773438 457.125 670.878906 456.871094 C 670.980469 456.621094 671.058594 456.363281 671.113281 456.097656 C 671.167969 455.828125 671.191406 455.5625 671.191406 455.289062 C 671.191406 455.015625 671.167969 454.75 671.113281 454.480469 C 671.058594 454.214844 670.980469 453.957031 670.878906 453.707031 C 670.773438 453.453125 670.644531 453.214844 670.496094 452.992188 C 670.34375 452.765625 670.171875 452.554688 669.980469 452.363281 C 669.789062 452.171875 669.578125 452 669.355469 451.847656 C 669.128906 451.699219 668.890625 451.570312 668.640625 451.464844 C 668.386719 451.363281 668.128906 451.285156 667.863281 451.230469 C 667.597656 451.179688 667.328125 451.152344 667.054688 451.152344 Z M 667.054688 451.152344 " fill-opacity="1" fill-rule="nonzero"/></g><path fill="#162b4c" d="M 456.082031 413.910156 L 456.082031 496.667969 C 456.082031 497.210938 456.058594 497.75 456.003906 498.289062 C 455.949219 498.828125 455.871094 499.363281 455.765625 499.894531 C 455.660156 500.429688 455.527344 500.953125 455.371094 501.472656 C 455.214844 501.992188 455.03125 502.5 454.824219 503 C 454.617188 503.5 454.386719 503.992188 454.128906 504.46875 C 453.875 504.949219 453.59375 505.410156 453.292969 505.863281 C 452.992188 506.3125 452.671875 506.75 452.328125 507.167969 C 451.984375 507.585938 451.621094 507.988281 451.238281 508.371094 C 450.855469 508.753906 450.453125 509.117188 450.035156 509.460938 C 449.613281 509.804688 449.179688 510.128906 448.730469 510.429688 C 448.277344 510.730469 447.8125 511.007812 447.335938 511.265625 C 446.859375 511.519531 446.371094 511.75 445.867188 511.957031 C 445.367188 512.164062 444.859375 512.347656 444.339844 512.503906 C 443.820312 512.664062 443.296875 512.792969 442.765625 512.898438 C 442.234375 513.007812 441.699219 513.085938 441.160156 513.136719 C 440.617188 513.191406 440.078125 513.21875 439.535156 513.21875 L 431.261719 513.21875 L 431.261719 397.359375 L 439.535156 397.359375 C 440.078125 397.359375 440.617188 397.386719 441.160156 397.441406 C 441.699219 397.492188 442.234375 397.574219 442.765625 397.679688 C 443.296875 397.785156 443.820312 397.914062 444.339844 398.074219 C 444.859375 398.230469 445.367188 398.414062 445.867188 398.621094 C 446.371094 398.828125 446.859375 399.058594 447.335938 399.3125 C 447.8125 399.570312 448.277344 399.847656 448.730469 400.148438 C 449.179688 400.449219 449.613281 400.773438 450.035156 401.117188 C 450.453125 401.460938 450.855469 401.824219 451.238281 402.207031 C 451.621094 402.589844 451.984375 402.992188 452.328125 403.410156 C 452.671875 403.832031 452.992188 404.265625 453.292969 404.714844 C 453.59375 405.167969 453.875 405.632812 454.128906 406.109375 C 454.386719 406.585938 454.617188 407.078125 454.824219 407.578125 C 455.03125 408.078125 455.214844 408.589844 455.371094 409.105469 C 455.527344 409.625 455.660156 410.152344 455.765625 410.683594 C 455.871094 411.214844 455.949219 411.75 456.003906 412.289062 C 456.058594 412.828125 456.082031 413.367188 456.082031 413.910156 Z M 456.082031 413.910156 " fill-opacity="1" fill-rule="nonzero"/><g clip-path="url(#be0fdd8cc4)"><path fill="#f2bd00" d="M 422.988281 405.636719 L 439.535156 405.636719 C 440.078125 405.636719 440.617188 405.6875 441.152344 405.792969 C 441.683594 405.902344 442.199219 406.058594 442.703125 406.265625 C 443.203125 406.472656 443.679688 406.726562 444.132812 407.03125 C 444.585938 407.332031 445.003906 407.675781 445.386719 408.058594 C 445.769531 408.445312 446.113281 408.863281 446.414062 409.3125 C 446.71875 409.765625 446.972656 410.242188 447.179688 410.746094 C 447.386719 411.246094 447.542969 411.765625 447.652344 412.296875 C 447.757812 412.828125 447.808594 413.367188 447.808594 413.910156 L 447.808594 496.667969 C 447.808594 497.210938 447.757812 497.75 447.652344 498.28125 C 447.542969 498.816406 447.386719 499.332031 447.179688 499.835938 C 446.972656 500.335938 446.71875 500.8125 446.414062 501.265625 C 446.113281 501.714844 445.769531 502.132812 445.386719 502.519531 C 445.003906 502.902344 444.585938 503.246094 444.132812 503.546875 C 443.679688 503.851562 443.203125 504.105469 442.703125 504.3125 C 442.199219 504.519531 441.683594 504.675781 441.152344 504.785156 C 440.617188 504.890625 440.078125 504.941406 439.535156 504.941406 L 422.988281 504.941406 C 422.445312 504.941406 421.910156 504.890625 421.375 504.785156 C 420.84375 504.675781 420.324219 504.519531 419.824219 504.3125 C 419.320312 504.105469 418.84375 503.851562 418.394531 503.546875 C 417.941406 503.246094 417.523438 502.902344 417.140625 502.519531 C 416.753906 502.132812 416.414062 501.714844 416.109375 501.265625 C 415.808594 500.8125 415.554688 500.335938 415.347656 499.835938 C 415.136719 499.332031 414.980469 498.816406 414.875 498.28125 C 414.769531 497.75 414.714844 497.210938 414.714844 496.667969 L 414.714844 413.910156 C 414.714844 413.367188 414.769531 412.828125 414.875 412.296875 C 414.980469 411.765625 415.136719 411.246094 415.347656 410.746094 C 415.554688 410.242188 415.808594 409.765625 416.109375 409.3125 C 416.414062 408.863281 416.753906 408.445312 417.140625 408.058594 C 417.523438 407.675781 417.941406 407.332031 418.394531 407.03125 C 418.84375 406.726562 419.320312 406.472656 419.824219 406.265625 C 420.324219 406.058594 420.84375 405.902344 421.375 405.792969 C 421.910156 405.6875 422.445312 405.636719 422.988281 405.636719 Z M 422.988281 405.636719 " fill-opacity="1" fill-rule="nonzero"/></g><path fill="#808994" d="M 451.945312 368.394531 L 468.492188 368.394531 C 468.765625 368.394531 469.035156 368.421875 469.300781 368.476562 C 469.566406 368.527344 469.824219 368.605469 470.078125 368.710938 C 470.328125 368.8125 470.566406 368.941406 470.792969 369.09375 C 471.015625 369.242188 471.226562 369.414062 471.417969 369.605469 C 471.609375 369.800781 471.78125 370.007812 471.933594 370.234375 C 472.082031 370.460938 472.210938 370.699219 472.316406 370.949219 C 472.417969 371.199219 472.496094 371.460938 472.550781 371.726562 C 472.605469 371.992188 472.628906 372.261719 472.628906 372.535156 L 472.628906 376.671875 L 447.808594 376.671875 L 447.808594 372.535156 C 447.808594 372.261719 447.835938 371.992188 447.890625 371.726562 C 447.941406 371.460938 448.019531 371.199219 448.125 370.949219 C 448.230469 370.699219 448.355469 370.460938 448.507812 370.234375 C 448.65625 370.007812 448.828125 369.800781 449.019531 369.605469 C 449.214844 369.414062 449.421875 369.242188 449.648438 369.09375 C 449.875 368.941406 450.113281 368.8125 450.363281 368.710938 C 450.613281 368.605469 450.875 368.527344 451.140625 368.476562 C 451.40625 368.421875 451.675781 368.394531 451.945312 368.394531 Z M 451.945312 368.394531 " fill-opacity="1" fill-rule="nonzero"/><path fill="#808994" d="M 559.5 368.394531 L 576.046875 368.394531 C 576.320312 368.394531 576.589844 368.421875 576.855469 368.476562 C 577.121094 368.527344 577.378906 368.605469 577.632812 368.710938 C 577.882812 368.8125 578.121094 368.941406 578.347656 369.09375 C 578.570312 369.242188 578.78125 369.414062 578.972656 369.605469 C 579.164062 369.800781 579.335938 370.007812 579.488281 370.234375 C 579.636719 370.460938 579.765625 370.699219 579.871094 370.949219 C 579.972656 371.199219 580.050781 371.460938 580.105469 371.726562 C 580.160156 371.992188 580.183594 372.261719 580.183594 372.535156 L 580.183594 376.671875 L 555.363281 376.671875 L 555.363281 372.535156 C 555.363281 372.261719 555.390625 371.992188 555.445312 371.726562 C 555.496094 371.460938 555.574219 371.199219 555.679688 370.949219 C 555.785156 370.699219 555.910156 370.460938 556.0625 370.234375 C 556.210938 370.007812 556.382812 369.800781 556.574219 369.605469 C 556.769531 369.414062 556.976562 369.242188 557.203125 369.09375 C 557.429688 368.941406 557.667969 368.8125 557.917969 368.710938 C 558.167969 368.605469 558.429688 368.527344 558.695312 368.476562 C 558.960938 368.421875 559.230469 368.394531 559.5 368.394531 Z M 559.5 368.394531 " fill-opacity="1" fill-rule="nonzero"/></svg>